<svg xmlns="http://www.w3.org/2000/svg" fill="none" viewBox="0 0 59 13">
  <path fill-rule="evenodd" clip-rule="evenodd" d="M0 4.727l5.337.002h3.245V1.517L0 4.727z" fill="#FF9D28"/>
  <path fill-rule="evenodd" clip-rule="evenodd" d="M8.582 1.517v11.34L12.636 0 8.582 1.517z" fill="#68C5ED"/>
  <path fill-rule="evenodd" clip-rule="evenodd" d="M8.583 12.858V4.729H5.337l3.246 8.129z" fill="#044D80"/>
  <path fill-rule="evenodd" clip-rule="evenodd" d="M6.17 6.814l-.833-2.086H0l6.17 2.086z" fill="#E54747"/>
  <path fill-rule="evenodd" clip-rule="evenodd" d="M56.447 7.601h-.166c-.055 0-.11.004-.165.012-.198.016-.393.04-.586.07a1.677 1.677 0 00-.514.166c-.15.08-.272.181-.367.307a.786.786 0 00-.142.485c0 .22.063.407.19.561.126.154.338.23.638.23a1.5 1.5 0 00.78-.212.915.915 0 00.243-.207.343.343 0 00.089-.207V7.601zm1.514 1.37c0 .623.09 1.076.272 1.36a2.034 2.034 0 01-.78.154c-.285-.001-.5-.056-.646-.166a.742.742 0 01-.278-.473 2.13 2.13 0 01-.685.46c-.284.127-.631.19-1.041.19-.213 0-.426-.03-.639-.088a1.675 1.675 0 01-.58-.289 1.498 1.498 0 01-.425-.536 1.843 1.843 0 01-.166-.818c0-.4.097-.727.29-.978.193-.251.436-.45.727-.595.292-.145.608-.245.947-.3a9.044 9.044 0 011.212-.118h.254v-.215c0-.303-.08-.518-.242-.645-.162-.128-.424-.192-.787-.192-.339 0-.64.056-.904.166-.265.11-.523.236-.775.378-.11-.134-.2-.282-.266-.443-.067-.162-.1-.282-.1-.36 0-.11.06-.217.183-.32a1.8 1.8 0 01.502-.277c.213-.083.458-.15.733-.201.276-.051.568-.077.875-.077.426 0 .787.043 1.083.13.295.087.536.22.72.402.186.181.318.407.397.68.08.27.119.588.119.95v2.222zm-7.676-3.668c.047-.07.11-.148.19-.234.078-.086.175-.164.29-.235.113-.07.24-.129.378-.176.138-.047.285-.07.443-.07.095 0 .195.008.302.023.106.016.205.046.295.088a.59.59 0 01.22.176.449.449 0 01.082.275c0 .172-.044.37-.13.592a4.865 4.865 0 01-.26.571 1.749 1.749 0 00-.402-.254 1.168 1.168 0 00-.474-.089.91.91 0 00-.614.214.651.651 0 00-.249.51v3.824h-1.608V4.753a2.64 2.64 0 01.532-.047c.252 0 .471.05.656.147a.657.657 0 01.35.45zm-4.573 0c.048-.07.11-.148.19-.234a1.35 1.35 0 01.29-.235c.114-.07.24-.129.378-.176.138-.047.286-.07.443-.07.095 0 .196.008.302.023.106.016.205.046.295.088a.583.583 0 01.22.176.449.449 0 01.082.275c0 .172-.043.37-.13.592a4.834 4.834 0 01-.26.571 1.756 1.756 0 00-.402-.254 1.168 1.168 0 00-.473-.089.91.91 0 00-.615.214.651.651 0 00-.249.51v3.824h-1.608V4.753a2.669 2.669 0 01.532-.047c.252 0 .471.05.657.147a.655.655 0 01.348.45zM41.46 6.94c0-.378-.074-.685-.22-.921-.147-.237-.41-.355-.791-.355-.325 0-.585.112-.78.337-.194.224-.29.537-.29.94h2.081zm-.539 2.399a1.882 1.882 0 00.926-.225 1.67 1.67 0 00.308-.206l.238-.207c.095.118.193.27.296.455.103.185.155.336.155.455 0 .173-.099.33-.296.472-.165.126-.4.235-.704.325a3.76 3.76 0 01-1.07.136 4.26 4.26 0 01-1.094-.142 2.417 2.417 0 01-.958-.496 2.55 2.55 0 01-.68-.951c-.173-.398-.26-.9-.26-1.507 0-.496.077-.923.23-1.282.154-.358.36-.655.616-.892.256-.236.545-.41.869-.52a3.06 3.06 0 01.993-.165c.442 0 .816.07 1.124.207a2.047 2.047 0 011.17 1.353c.087.3.13.614.13.945v.165c0 .064-.002.13-.005.201l-.012.207c-.004.067-.01.12-.018.16H39.39c.032.433.166.793.404 1.08.237.288.613.432 1.127.432zm-7.207.153a2.043 2.043 0 01-.107-.496 5.649 5.649 0 01-.023-.52V2.993l.177-.024a2.37 2.37 0 01.366-.024c.126 0 .253.012.379.036a.89.89 0 01.343.142.78.78 0 01.248.29c.063.121.095.28.095.478v.839h1.656v1.193H35.19v2.52c0 .55.225.824.674.824.11 0 .215-.018.313-.053.099-.036.188-.075.266-.118a1.456 1.456 0 00.331-.243c.119.174.21.324.273.45a.81.81 0 01.094.358.473.473 0 01-.124.304c-.083.1-.2.19-.349.274-.15.084-.33.151-.544.203a2.96 2.96 0 01-.698.078c-.489 0-.869-.095-1.141-.284a1.508 1.508 0 01-.573-.745zM30.792 7.46c0-.236-.02-.456-.059-.662a1.611 1.611 0 00-.194-.531.944.944 0 00-.365-.349 1.161 1.161 0 00-.558-.124c-.33 0-.559.063-.688.19a.57.57 0 00-.194.413V8.9c.063.063.174.137.335.224.16.087.347.13.559.13.4 0 .693-.157.882-.472.188-.315.282-.757.282-1.324zm-2.129-2.186c.126-.15.322-.301.59-.455.267-.153.605-.23 1.014-.23.29 0 .567.05.83.148.264.098.498.258.702.478.205.22.368.512.49.875.121.362.182.807.182 1.335 0 .614-.07 1.12-.212 1.518-.142.398-.324.713-.548.945a1.89 1.89 0 01-.749.49c-.275.095-.55.143-.825.143a2.06 2.06 0 01-.595-.077 2.36 2.36 0 01-.43-.172 1.147 1.147 0 01-.39-.319v2.905h-1.608V4.753a2.661 2.661 0 01.536-.047c.262 0 .485.043.667.13a.612.612 0 01.346.437zm-4.458 2.328h-.166c-.055 0-.11.004-.165.012-.197.016-.393.04-.586.07a1.675 1.675 0 00-.514.166c-.15.08-.272.181-.367.307a.786.786 0 00-.142.485c0 .22.063.407.19.561.126.154.338.23.638.23a1.499 1.499 0 00.78-.212.913.913 0 00.243-.207.343.343 0 00.089-.207V7.601zm1.514 1.37c0 .623.09 1.076.272 1.36a2.034 2.034 0 01-.78.154c-.285-.001-.5-.056-.645-.166a.742.742 0 01-.278-.473 2.133 2.133 0 01-.686.46c-.284.127-.631.19-1.041.19a2.39 2.39 0 01-.639-.088 1.68 1.68 0 01-.58-.289 1.494 1.494 0 01-.425-.536 1.843 1.843 0 01-.166-.818c0-.4.097-.727.29-.978.193-.251.436-.45.728-.595.291-.145.607-.245.946-.3a9.048 9.048 0 011.212-.118h.254V6.56c0-.303-.08-.518-.242-.645-.162-.128-.424-.192-.787-.192-.339 0-.64.056-.904.166-.265.11-.523.236-.775.378-.11-.134-.2-.282-.266-.443-.067-.162-.1-.282-.1-.36 0-.11.06-.217.183-.32.122-.102.29-.195.502-.277a4.1 4.1 0 01.734-.201c.276-.051.567-.077.875-.077.425 0 .786.043 1.082.13.295.087.536.22.721.402.185.181.318.407.396.68.08.27.118.588.118.95v2.222zm-6.059.901a1.49 1.49 0 01-.235.176c-.11.07-.252.142-.429.212-.176.07-.392.131-.646.182a4.58 4.58 0 01-.876.076c-.635 0-1.183-.102-1.646-.305a3.065 3.065 0 01-1.146-.852 3.492 3.492 0 01-.664-1.292 5.995 5.995 0 01-.211-1.638c0-.595.076-1.145.229-1.65.152-.505.382-.942.687-1.31a3.16 3.16 0 011.147-.863c.458-.207.997-.311 1.616-.311.305 0 .582.027.829.082a4.2 4.2 0 01.646.194 2.5 2.5 0 01.735.44.95.95 0 01.182.223c.051.087.076.18.076.282a.78.78 0 01-.176.47 3.377 3.377 0 01-.388.435 4.78 4.78 0 00-.317-.288 2.169 2.169 0 00-.394-.259 2.606 2.606 0 00-.494-.187 2.317 2.317 0 00-.617-.077c-.4 0-.735.08-1.005.241-.27.16-.488.37-.652.628a2.664 2.664 0 00-.353.887 5.146 5.146 0 000 2.073c.07.337.192.634.364.893.173.258.398.466.676.622.278.157.625.235 1.04.235.22 0 .422-.027.606-.082a2.422 2.422 0 00.858-.446c.106-.087.194-.16.265-.224l.164.2c.063.08.122.161.177.247.054.086.101.172.14.258.04.086.06.165.06.235 0 .102-.02.188-.06.258-.039.07-.101.15-.188.235z" fill="#044D80"/>
</svg>
