<svg xmlns="http://www.w3.org/2000/svg" fill="none" viewBox="0 0 118 13">
  <path fill-rule="evenodd" clip-rule="evenodd" d="M108.219 0c-.619 0-1.126.496-1.126 1.103v3.966c0 .607.507 1.103 1.126 1.103h1.502c.62 0 .915.451.658 1.003l-.348.745c-.258.552-.026.762.516.468l3.023-1.645c.542-.294 1.492-.535 2.111-.535h.862c.619 0 1.127-.496 1.127-1.103V1.103c0-.607-.508-1.103-1.127-1.103h-8.324z" fill="#F2BF69"/>
  <path d="M105.891 11.131a1.28 1.28 0 011.176-.764 1.269 1.269 0 01.904.364c.116.114.208.246.275.398.066.152.1.314.1.487s-.033.335-.1.487a1.224 1.224 0 01-.679.66 1.31 1.31 0 01-.497.094 1.31 1.31 0 01-.498-.093 1.252 1.252 0 01-.681-.659 1.206 1.206 0 01-.1-.487 1.176 1.176 0 01.1-.487zm.353.832a.89.89 0 00.186.285.886.886 0 00.639.262.88.88 0 00.891-.894.915.915 0 00-.253-.63.89.89 0 00-.64-.262.89.89 0 00-.638.263.898.898 0 00-.252.63c0 .122.022.237.067.346zm.861-1.02c.179 0 .313.036.4.107a.377.377 0 01.132.31c0 .115-.033.203-.099.265a.409.409 0 01-.243.11l.342.556h-.33l-.325-.543h-.11l.001.543h-.303l-.001-1.348h.536zm-.002.57a.39.39 0 00.165-.031c.043-.02.066-.066.066-.138a.153.153 0 00-.025-.09.147.147 0 00-.064-.048.283.283 0 00-.085-.022.836.836 0 00-.089-.005h-.199v.334h.231zm-5.189-6.758c-1.989 0-3.405 1.403-3.405 3.002v2.128c0 1.78 1.349 3.018 3.405 3.018 1.111 0 1.919-.38 2.491-.923a4.38 4.38 0 00.675-.89c.101-.166.051-.348-.05-.397l-1.668-.825c-.101-.05-.202-.015-.254.132-.235.577-.622.841-1.194.841-.624 0-1.062-.412-1.062-.94v-.363c0-.115.05-.181.201-.181h4.06c.101 0 .169-.049.169-.165V7.757c0-1.583-1.399-3.002-3.368-3.002zm.976 3.118h-1.837c-.134 0-.186-.082-.186-.181l.018-.231c.034-.479.489-.825 1.096-.825.589 0 1.06.346 1.095.808l.017.23c0 .117-.034.199-.203.199z" fill="#2D2E2C"/>
  <path fill-rule="evenodd" clip-rule="evenodd" d="M94.634 6.785c.522 0 .91.33 1.197.989.05.116.134.148.252.099l1.65-.726c.102-.05.137-.148.086-.28-.152-.346-.321-.66-.539-.923-.556-.727-1.381-1.14-2.662-1.14-2.09 0-3.352 1.238-3.352 3.02v2.01c0 1.782 1.262 3.003 3.352 3.003 1.18 0 1.954-.346 2.509-.957.287-.314.507-.692.692-1.121.051-.133.016-.215-.086-.264l-1.65-.742c-.118-.05-.201-.017-.252.1-.287.659-.675 1.005-1.197 1.005-.622 0-1.027-.43-1.027-.957V7.74c0-.528.405-.956 1.027-.956zm-4.859-1.798H87.77c-.118 0-.169.049-.169.164v7.34c0 .114.05.164.17.164h2.004c.1 0 .152-.05.152-.164V5.15c0-.115-.069-.164-.152-.164zm-1.01-3.235c-.655 0-1.185.52-1.185 1.16 0 .64.53 1.159 1.184 1.159.653 0 1.186-.52 1.186-1.16 0-.64-.533-1.159-1.186-1.159zm-2.211 3.235h-2.139a.196.196 0 00-.185.13l-1.264 3.547c-.068.181-.169.61-.201.825h-.051a4.723 4.723 0 00-.203-.825l-1.314-3.563c-.034-.082-.083-.114-.168-.114h-2.14c-.151 0-.201.098-.151.23l3.016 7.323c.034.082.1.115.168.115h1.566c.085 0 .151-.034.186-.115l3.032-7.323c.051-.132 0-.23-.152-.23z" fill="#2D2E2C"/>
  <path d="M77.664 2.265h-1.989c-.082 0-.167.049-.167.165v2.293c0 .247.05.725.05.725-.336-.297-.893-.461-1.297-.461-1.836 0-3.166 1.203-3.166 3.001v1.666c0 1.912 1.144 3.001 3.2 3.001.471 0 1.029-.149 1.38-.444.103-.083.22-.05.22.082v.247c0 .065.05.115.136.115h1.633c.101 0 .168-.05.168-.164V2.43c0-.116-.067-.165-.168-.165zm-2.156 7.537c0 .545-.455.957-1.044.957-.607 0-1.028-.412-1.028-.957V7.823c0-.528.421-.924 1.028-.924.606 0 1.044.396 1.044.924v1.979zm-8.39-7.422c-.034-.082-.085-.115-.167-.115H65.45c-.1 0-.134.033-.168.115l-3.318 10.061c-.05.131.016.214.167.214h2.123c.084 0 .118-.034.152-.115l.488-1.502c.033-.082.068-.098.185-.098h2.224c.118 0 .153.016.185.098l.472 1.502c.034.082.067.115.169.115h2.139c.17 0 .219-.082.17-.214l-3.32-10.06zm-.404 6.73h-1.028c-.169 0-.236-.1-.202-.199l.353-1.335c.17-.61.304-1.336.338-1.764h.068c.033.428.135 1.154.302 1.764l.354 1.335c.034.1-.034.198-.185.198zM54.938 4.754c-1.988 0-3.403 1.403-3.403 3.002v2.128c0 1.78 1.346 3.018 3.403 3.018 1.113 0 1.92-.38 2.493-.923.27-.264.49-.579.673-.89.101-.166.051-.348-.05-.397l-1.668-.825c-.1-.05-.201-.015-.253.132-.234.577-.622.841-1.195.841-.623 0-1.063-.412-1.063-.94v-.363c0-.115.052-.181.203-.181h4.06c.101 0 .17-.049.17-.165V7.757c0-1.583-1.399-3.002-3.37-3.002zm.977 3.118h-1.837c-.134 0-.185-.082-.185-.181l.016-.231c.035-.479.49-.825 1.096-.825.59 0 1.061.346 1.095.808l.017.23c0 .117-.033.199-.202.199z" fill="#2D2E2C"/>
  <path fill-rule="evenodd" clip-rule="evenodd" d="M50.524 5.02a3.07 3.07 0 00-.438-.033c-.64 0-1.248.296-1.516.626-.084.082-.22.066-.22-.081V5.15c0-.115-.05-.164-.168-.164h-1.6c-.101 0-.169.05-.169.164v7.34c0 .114.068.164.169.164h1.988c.1 0 .168-.05.168-.164V8.12c0-.578.422-.99 1.011-.99.252 0 .472.033.673.083.153.033.254-.016.254-.165V5.185c0-.083-.05-.149-.152-.166z" fill="#2D2E2C"/>
  <path d="M41.539 4.805c-1.044 0-1.819.33-2.392.841-.32.28-.573.61-.775.973-.102.166-.05.347.05.396l1.669.826c.1.049.201.015.252-.133.236-.577.624-.842 1.196-.842.624 0 1.011.414 1.011.94v.084c0 .116-.05.18-.169.18h-1.483c-1.482 0-2.678.792-2.678 2.178v.165c0 1.4 1.078 2.242 2.528 2.242h.589c.454 0 .96-.149 1.314-.429.067-.049.151-.032.168.017l.051.28c.016.082.085.132.185.132h1.65c.102 0 .17-.05.17-.164V7.823c0-1.78-1.28-3.018-3.336-3.018zm.05 6.07h-.622c-.356 0-.556-.215-.556-.678 0-.329.235-.56.573-.56h1.43c.102 0 .136.182.136.231-.034.61-.506 1.007-.96 1.007z" fill="#2D2E2C"/>
  <path fill-rule="evenodd" clip-rule="evenodd" d="M37.544 4.987h-2.039c-.1 0-.168.049-.185.13l-.758 3.102a7.275 7.275 0 00-.168 1.187h-.05a6.432 6.432 0 00-.186-1.187L33.4 5.118c-.017-.082-.085-.131-.185-.131h-1.668c-.1 0-.152.049-.169.13l-.74 3.086a9.135 9.135 0 00-.186 1.12h-.051a6.55 6.55 0 00-.168-1.12l-.776-3.085c-.015-.082-.066-.131-.168-.131h-2.088c-.152 0-.203.083-.152.214l2.375 7.339c.034.082.084.115.169.115h1.483c.1 0 .15-.034.168-.115l.926-3.414c.101-.378.185-1.022.185-1.022h.05s.085.644.186 1.022l.91 3.397c.017.082.067.132.168.132h1.467c.084 0 .134-.034.168-.115l2.408-7.34c.034-.116-.016-.214-.168-.214zm-11.362 0h-1.128c-.152 0-.202-.05-.202-.165v-1.04c0-.116-.034-.149-.151-.149h-1.063a.317.317 0 00-.201.082L21.33 5.78V6.9c0 .116.051.15.169.15h.841c.152 0 .203.066.203.18v2.573c0 1.98 1.264 3.002 2.863 3.002h.708c.15 0 .22-.066.22-.183v-1.697c0-.099-.052-.165-.17-.165h-.285c-.691 0-1.028-.412-1.028-1.122V7.229c0-.114.05-.18.201-.18h1.13c.118 0 .151-.034.151-.15V5.151c0-.115-.033-.164-.152-.164zm-5.037-2.805a5.951 5.951 0 00-1.196-.115c-2.493 0-3.437 1.699-3.437 3.035v.412c0 .116-.05.166-.184.166h-.388c-.102 0-.168.049-.168.164v1.732c0 .116.066.165.168.165h.388c.15 0 .184.05.184.164v4.586c0 .114.051.164.17.164h1.987c.118 0 .169-.05.169-.164V7.905c0-.114.05-.164.185-.164h1.095c.118 0 .168-.05.168-.165V5.844c0-.115-.05-.164-.168-.164h-1.095c-.135 0-.185-.05-.185-.166V5.07c0-.579.422-.943 1.061-.943.219 0 .454.034.64.083.118.034.185 0 .219-.098l.522-1.698c.034-.116 0-.2-.135-.232z" fill="#2D2E2C"/>
  <path d="M11.41 4.805c2.021 0 3.369 1.22 3.369 3.018v2.011c0 1.799-1.348 3.003-3.368 3.003-2.056 0-3.404-1.221-3.404-3.003v-2.01c0-1.782 1.348-3.02 3.404-3.02zM12.439 9.9V7.74c0-.528-.439-.956-1.027-.956-.624 0-1.062.444-1.062.956V9.9c0 .528.438.957 1.062.957.588 0 1.027-.43 1.027-.957z" fill="#2D2E2C"/>
  <path fill-rule="evenodd" clip-rule="evenodd" d="M4.385 6.454c-.927-.347-1.92-.594-1.92-1.336 0-.593.454-.99 1.043-.99h.253c.573 0 .96.265 1.196.842.05.148.151.18.252.131l1.668-.824c.101-.05.152-.231.051-.397a3.484 3.484 0 00-.505-.708c-.59-.643-1.433-1.105-2.662-1.105h-.253c-2.106 0-3.403 1.22-3.403 3.084 0 1.897 1.247 2.606 2.797 3.217 1.011.395 1.887.61 1.887 1.434 0 .676-.54.974-1.146.974h-.42c-.574 0-.96-.264-1.197-.843-.05-.147-.152-.18-.252-.131l-1.669.824c-.1.05-.151.232-.05.397.151.264.337.528.556.76.572.624 1.415 1.053 2.611 1.053h.539c2.139 0 3.386-1.204 3.386-3.067 0-1.928-1.162-2.705-2.762-3.315z" fill="#2D2E2C"/>
</svg>
