<svg xmlns="http://www.w3.org/2000/svg" fill="none" viewBox="0 0 68 13">
  <path fill-rule="evenodd" clip-rule="evenodd" d="M67.011 10.436a.48.48 0 01-.48-.477.48.48 0 01.96 0 .48.48 0 01-.48.477zm0-1.042a.562.562 0 100 1.123.562.562 0 100-1.123zm-.107.522v-.181h.105c.06 0 .128.017.128.087 0 .077-.075.094-.14.094h-.093zm.347-.092c0-.136-.117-.186-.237-.186h-.225v.636h.115v-.266h.083l.15.266h.14l-.173-.278c.09-.02.147-.08.147-.172zM53.032 9.49c-.893 0-1.3-.757-1.3-1.461 0-.694.407-1.441 1.3-1.441.894 0 1.3.747 1.3 1.44 0 .705-.407 1.462-1.3 1.462zm0-4.045c-1.558 0-2.689 1.087-2.689 2.584 0 1.55 1.156 2.637 2.69 2.637 1.532 0 2.689-1.098 2.689-2.637 0-1.497-1.132-2.584-2.69-2.584zm-15.227.138H36.04L34.27 7.63h-.03V2.866h-1.37v7.648h1.37V8.082h.03l1.834 2.432h1.803L35.774 7.82l2.03-2.237zM40.97 9.49c-.826 0-1.32-.733-1.32-1.441 0-.703.505-1.461 1.32-1.461.886 0 1.327.747 1.327 1.44 0 .727-.48 1.462-1.327 1.462zm.269-4.045c-.626 0-1.088.272-1.523.678h-.026V2.866h-1.37v7.648h1.31v-.697h.02c.31.504.923.836 1.56.836 1.413 0 2.484-1.104 2.484-2.624 0-1.497-1.059-2.584-2.455-2.584zm20.308.138h-1.766L58.013 7.63h-.03V2.866h-1.37v7.648h1.37V8.082h.03l1.834 2.432h1.803L59.517 7.82l2.03-2.237zm2.59 1.896c-.706-.167-.954-.257-.954-.54 0-.392.499-.478.724-.478.426 0 .906.253 1.086.492l.808-.77c-.374-.467-1.108-.738-1.884-.738-.99 0-2.031.495-2.031 1.602 0 .951.749 1.238 1.482 1.413.773.179 1.05.31 1.05.619 0 .456-.522.53-.7.53-.449 0-.968-.254-1.248-.585l-.832.838c.455.5 1.232.802 2.03.802 1.338 0 2.133-.634 2.133-1.681 0-1.002-.973-1.339-1.665-1.504zM47.013 9.49c-.893 0-1.3-.756-1.3-1.46 0-.694.407-1.441 1.3-1.441s1.3.747 1.3 1.44c0 .705-.407 1.462-1.3 1.462zm0-4.044c-1.558 0-2.689 1.087-2.689 2.584 0 1.55 1.156 2.637 2.69 2.637 1.532 0 2.688-1.098 2.688-2.637 0-1.497-1.13-2.584-2.689-2.584zM15.82 9.49c-.847 0-1.329-.735-1.329-1.461 0-.694.442-1.441 1.329-1.441.815 0 1.32.758 1.32 1.46 0 .71-.494 1.442-1.32 1.442zm1.33-3.28h-.031c-.194-.213-.718-.765-1.569-.765-1.396 0-2.472 1.087-2.472 2.584 0 1.52.993 2.624 2.407 2.624.642 0 1.244-.338 1.594-.732h.02v3.021h1.37V5.583h-1.32v.626zm5.765 2.077c0 .579-.38 1.203-1.088 1.203-.546 0-.838-.387-.838-1.183V5.583H19.62v3.06c0 1.019.511 2.01 1.878 2.01.644 0 1.184-.504 1.456-.877h.02v.738h1.31v-4.93h-1.37v2.703zm2.49 2.227h1.37v-4.93h-1.37v4.93zm4.936-1.024c-.833 0-1.254-.741-1.254-1.457 0-.716.456-1.425 1.215-1.425.355 0 .803.177.98.426l.882-.875c-.427-.447-1.108-.714-1.863-.714-1.535 0-2.649 1.095-2.649 2.604 0 1.533 1.102 2.604 2.68 2.604.75 0 1.444-.219 1.855-.658l-.858-.916c-.199.24-.614.41-.988.41z" fill="#000"/>
  <path fill-rule="evenodd" clip-rule="evenodd" d="M5.769 0c3.186 0 5.769 2.568 5.769 5.735 0 3.168-2.583 5.736-5.769 5.736S0 8.903 0 5.735C0 2.568 2.583 0 5.769 0z" fill="#2CA01C"/>
  <path fill-rule="evenodd" clip-rule="evenodd" d="M7.693 3.505h-.32v.829h.32c.777 0 1.41.629 1.41 1.402 0 .772-.633 1.401-1.41 1.401h-.77V2.804a.83.83 0 00-.834-.828v5.99h1.604a2.237 2.237 0 002.243-2.23 2.237 2.237 0 00-2.243-2.23zm-6.091 2.23a2.237 2.237 0 002.243 2.23h.32v-.828h-.32c-.777 0-1.41-.629-1.41-1.402 0-.773.633-1.402 1.41-1.402h.77v4.334a.83.83 0 00.834.828v-5.99H3.845a2.236 2.236 0 00-2.243 2.23z" fill="#fff"/>
  <path fill-rule="evenodd" clip-rule="evenodd" d="M21.88 3.014c0 .335-.189.68-.588.68-.405 0-.473-.371-.473-.67v-1.39h-.631v1.568c0 .513.273 1.014.93 1.014.374 0 .674-.224.784-.475h.01v.402h.6V1.635h-.631v1.38zm-4.177-.825h.708v1.954h.63V2.19h.708v-.556h-2.046v.556zm5.454 1.954h.631V1.635h-.63v2.508zm1.073-2.51v.556h.707v1.954h.631V2.19h.708v-.556H24.23zm1.023-.327a.38.38 0 00.381-.379.38.38 0 00-.381-.379.38.38 0 00-.381.38c0 .208.17.378.381.378zM13.781 4.143h.631V1.635h-.63v2.508zm2.67-2.582c-.373 0-.673.225-.783.476h-.01v-.402h-.6v2.508h.631v-1.38c0-.334.19-.679.589-.679.405 0 .473.371.473.669v1.39h.63V2.575c0-.512-.272-1.014-.93-1.014zm2.275-.255a.38.38 0 00.381-.379.38.38 0 00-.38-.379.38.38 0 00-.382.38c0 .208.17.378.381.378z" fill="#000"/>
</svg>
