<svg xmlns="http://www.w3.org/2000/svg" fill="none" viewBox="0 0 203 34">
  <path d="M43.581 25.772V8.752h6.256c1.377 0 2.492.21 3.346.63.873.4 1.513.946 1.92 1.638.427.692.64 1.485.64 2.377a4.73 4.73 0 01-.35 1.83 3.667 3.667 0 01-1.047 1.448c-.465.419-1.057.747-1.774.983-.718.219-1.581.328-2.59.328h-4.917v7.786H43.58zm1.484-8.96h4.684c1.125 0 2.018-.146 2.677-.438.66-.29 1.125-.692 1.397-1.201.29-.51.436-1.093.436-1.749a3.41 3.41 0 00-.436-1.72c-.291-.529-.767-.939-1.426-1.23-.66-.31-1.532-.465-2.619-.465h-4.713v6.803zm16.259-3.415h1.513l-.087 3.66-.262-.19c.116-.584.34-1.103.669-1.558a5.084 5.084 0 011.251-1.202 5.914 5.914 0 011.63-.737 5.91 5.91 0 011.774-.274c.737 0 1.474.119 2.212.355.736.237 1.357.583 1.862 1.039l-.699 1.038-.116.218-.204-.11a.526.526 0 00-.145-.354c-.078-.11-.243-.246-.495-.41a4.909 4.909 0 00-1.193-.464 5.47 5.47 0 00-1.25-.137c-.66 0-1.29.11-1.892.328a4.839 4.839 0 00-1.6.956c-.466.4-.835.901-1.106 1.503-.272.6-.407 1.274-.407 2.021v6.72h-1.455V13.397zm20.71 12.648c-1.028 0-1.969-.146-2.822-.437a6.516 6.516 0 01-2.182-1.257 5.531 5.531 0 01-1.397-2.021c-.33-.801-.495-1.703-.495-2.705 0-1.056.166-1.985.495-2.786.35-.82.815-1.503 1.397-2.049a5.524 5.524 0 012.037-1.257 7.302 7.302 0 012.53-.437c.835 0 1.61.119 2.328.355a5.137 5.137 0 011.863 1.066c.543.473.96 1.074 1.25 1.803.311.728.466 1.584.466 2.568v.382c0 .091-.01.21-.029.355h-10.94c.039.893.194 1.676.466 2.35a4.78 4.78 0 001.163 1.639 4.774 4.774 0 001.717.983 7.083 7.083 0 002.182.328c.602 0 1.155-.064 1.659-.191a5.28 5.28 0 001.367-.547 6.749 6.749 0 001.164-.874l.902.738a6.67 6.67 0 01-1.397 1.093 6.082 6.082 0 01-1.716.683 8.81 8.81 0 01-2.008.218zm-5.412-7.512h9.427c0-.692-.116-1.312-.349-1.858a3.511 3.511 0 00-.93-1.366 3.553 3.553 0 00-1.426-.847 5.548 5.548 0 00-1.775-.273c-.699 0-1.329.1-1.892.3a4.371 4.371 0 00-1.513.847 4.596 4.596 0 00-1.047 1.394 5.673 5.673 0 00-.495 1.803zm20.856 7.512c-.814 0-1.58-.073-2.298-.219a8.853 8.853 0 01-2.008-.655 8.675 8.675 0 01-1.775-1.12l.873-1.175.175-.191.175.11c0 .108.029.227.087.354.077.128.233.292.465.492a7.215 7.215 0 001.862.902c.718.236 1.552.355 2.503.355.97 0 1.774-.091 2.415-.273.64-.2 1.125-.474 1.454-.82a1.85 1.85 0 00.495-1.284c0-.328-.087-.61-.262-.847-.174-.255-.446-.482-.815-.683-.349-.218-.795-.41-1.338-.573a24.92 24.92 0 00-1.92-.547c-1.087-.236-2.037-.519-2.852-.847-.795-.346-1.416-.746-1.862-1.202a2.226 2.226 0 01-.669-1.611c0-.62.204-1.157.611-1.612.407-.474.999-.838 1.775-1.093.795-.273 1.755-.41 2.88-.41.699 0 1.31.046 1.833.137a8.359 8.359 0 011.484.328c.446.146.854.337 1.222.573a7.01 7.01 0 011.077.793l-.873.983-.175.191-.174-.136a.475.475 0 00-.087-.355c-.078-.11-.233-.264-.466-.465a4.936 4.936 0 00-1.688-.71 8.089 8.089 0 00-2.065-.246c-1.222 0-2.183.173-2.88.52-.68.327-1.02.8-1.02 1.42 0 .4.156.755.466 1.065.33.31.834.601 1.513.874.68.255 1.552.501 2.619.738 1.164.255 2.114.546 2.851.874.757.31 1.319.683 1.688 1.12.368.437.553.956.553 1.557a3.15 3.15 0 01-.611 1.885c-.388.565-1.019 1.01-1.892 1.339-.853.31-1.968.464-3.346.464zm16.55 0c-1.028 0-1.969-.146-2.822-.437a6.507 6.507 0 01-2.182-1.257 5.525 5.525 0 01-1.397-2.021c-.33-.801-.495-1.703-.495-2.705 0-1.056.165-1.985.495-2.786.349-.82.815-1.503 1.397-2.049a5.528 5.528 0 012.036-1.257 7.305 7.305 0 012.532-.437c.834 0 1.61.119 2.327.355a5.128 5.128 0 011.862 1.066c.544.473.961 1.074 1.252 1.803.31.728.465 1.584.465 2.568v.382c0 .091-.009.21-.029.355h-10.94c.039.893.194 1.676.466 2.35a4.792 4.792 0 001.163 1.639 4.778 4.778 0 001.717.983 7.081 7.081 0 002.182.328 6.77 6.77 0 001.659-.191c.504-.128.96-.31 1.367-.547a6.743 6.743 0 001.164-.874l.902.738a6.655 6.655 0 01-1.397 1.093 6.066 6.066 0 01-1.716.683 8.77 8.77 0 01-2.008.218zm-5.412-7.512h9.427c0-.692-.116-1.312-.349-1.858a3.513 3.513 0 00-.931-1.366 3.553 3.553 0 00-1.426-.847 5.544 5.544 0 00-1.774-.273c-.699 0-1.329.1-1.892.3a4.382 4.382 0 00-1.513.847 4.61 4.61 0 00-1.047 1.394 5.678 5.678 0 00-.495 1.803zm15.445 7.239v-1.12h4.626V8.725h-4.423v-1.12h5.907v17.047h4.597v1.12h-10.707zm15.997 0v-1.12h4.626V8.725h-4.423v-1.12h5.907v17.047h4.597v1.12h-10.707z" fill="#000"/>
  <path d="M161.117 26.128c-.737 0-1.358-.236-1.862-.71a2.317 2.317 0 01-.728-1.721c0-.656.243-1.22.728-1.694.504-.473 1.125-.71 1.862-.71.698 0 1.3.237 1.804.71.504.474.756 1.038.756 1.694 0 .674-.252 1.247-.756 1.721a2.544 2.544 0 01-1.804.71z" fill="#FF2E2E"/>
  <path d="M180.955 20.828h-7.448l.523-1.53h6.401l.524 1.53zm-3.579-8.086l-5.353 13.03h-2.095l7.361-17.319h.233l7.361 17.32h-2.182l-5.325-13.031zm10.585 13.03v-1.638h4.045V10.393h-3.812v-1.64h9.922v1.64H194.1V24.16h4.19v1.612h-10.329z" fill="#000"/>
</svg>
